<?xml version="1.0" standalone="no"?>
<!DOCTYPE svg PUBLIC "-//W3C//DTD SVG 20010904//EN"
 "http://www.w3.org/TR/2001/REC-SVG-20010904/DTD/svg10.dtd">
<svg version="1.0" xmlns="http://www.w3.org/2000/svg"
 width="732.000000pt" height="732.000000pt" viewBox="0 0 732.000000 732.000000"
 preserveAspectRatio="xMidYMid meet">
<metadata>
Created by potrace 1.14, written by Peter Selinger 2001-2017
</metadata>
<g transform="translate(0.000000,732.000000) scale(0.100000,-0.100000)"
fill="#000000" stroke="none">
<path d="M4850 6950 c-466 -45 -848 -179 -1160 -408 -98 -73 -247 -217 -317
-309 l-56 -73 -403 0 -404 0 0 -31 c0 -26 -3 -30 -17 -24 -52 22 -191 58 -288
75 -525 90 -1064 -46 -1460 -370 -100 -81 -260 -251 -331 -350 -197 -273 -320
-583 -380 -955 -22 -136 -30 -546 -14 -702 50 -499 241 -950 534 -1261 36 -38
66 -72 66 -76 0 -3 -119 -6 -265 -6 l-265 0 0 -27 c0 -70 62 -553 80 -631 128
-545 460 -956 975 -1207 314 -153 618 -222 1032 -232 446 -11 784 52 1098 206
459 225 772 584 943 1081 36 105 86 297 94 360 4 30 3 30 148 -8 435 -114 988
-123 1421 -21 216 50 483 159 657 267 385 239 642 603 729 1029 28 137 25 471
-6 613 -45 213 -125 399 -234 545 -28 39 -106 125 -173 193 l-121 122 288 0
289 0 0 28 c0 62 -51 505 -70 604 -62 324 -191 608 -391 853 -82 102 -261 269
-370 348 -240 172 -562 293 -922 348 -152 23 -549 34 -707 19z m530 -401 c406
-37 732 -166 991 -392 270 -236 444 -572 494 -954 l7 -53 -586 0 -586 0 -6 28
c-37 166 -128 290 -270 364 -96 51 -184 70 -324 71 -131 0 -213 -14 -285 -50
-126 -64 -175 -137 -175 -262 0 -206 143 -293 697 -426 377 -91 754 -215 941
-309 202 -103 419 -316 507 -501 69 -144 105 -315 105 -504 0 -566 -399 -1009
-1060 -1180 -176 -45 -306 -62 -531 -68 -326 -9 -579 23 -846 108 -134 43
-348 140 -446 202 -32 20 -59 37 -61 37 -2 0 -6 -114 -9 -252 -3 -167 -10
-280 -20 -333 -73 -379 -205 -645 -431 -870 -310 -308 -688 -445 -1228 -445
-577 0 -1019 159 -1344 484 -216 217 -318 425 -378 779 l-7 37 508 0 508 0 35
-78 c66 -146 224 -263 417 -309 106 -25 340 -25 433 0 171 45 331 169 398 307
68 140 75 189 80 559 l4 334 -59 -74 c-110 -138 -277 -267 -431 -334 -302
-131 -701 -139 -1032 -20 -418 151 -750 520 -894 995 -62 205 -86 388 -86 654
0 214 17 368 61 544 53 217 119 366 237 543 252 375 641 597 1097 625 275 16
543 -48 768 -183 92 -56 232 -182 294 -267 l43 -58 0 231 0 231 320 0 320 0
29 58 c78 154 229 321 387 429 255 174 563 273 949 306 95 8 359 6 465 -4z"/>
<path d="M2054 4899 c-140 -23 -265 -91 -379 -204 -131 -130 -194 -277 -215
-497 -42 -440 148 -786 495 -904 104 -35 272 -44 385 -20 202 42 391 194 485
391 61 127 76 195 82 370 8 222 -23 376 -104 514 -76 130 -224 260 -353 311
-114 45 -269 60 -396 39z m265 -418 c56 -29 115 -89 145 -148 37 -73 49 -156
44 -290 -7 -154 -29 -216 -107 -294 -72 -72 -131 -93 -240 -87 -116 7 -197 57
-248 155 -43 82 -57 151 -56 283 2 166 24 233 106 315 78 77 130 97 238 91 51
-3 89 -11 118 -25z"/>
<path d="M3940 4046 l0 -316 311 -2 311 -3 22 -76 c28 -95 66 -161 131 -224
65 -62 142 -109 237 -142 62 -22 95 -27 216 -31 217 -7 331 22 426 109 74 67
100 124 100 214 0 84 -26 147 -82 196 -85 75 -319 158 -772 273 -506 128 -720
202 -877 304 l-23 14 0 -316z"/>
</g>
</svg>
